<svg width="468" height="138" viewBox="0 0 468 138" fill="none" xmlns="http://www.w3.org/2000/svg">
<path d="M96.688 38.608L79.12 106H59.248L48.496 61.648L37.36 106H17.488L0.4 38.608H17.968L27.664 87.664L39.664 38.608H57.712L69.232 87.664L79.024 38.608H96.688Z" fill="#151946"/>
<path d="M151.744 106.768C147.072 106.768 142.912 105.968 139.264 104.368C135.616 102.768 132.736 100.592 130.624 97.84C128.512 95.024 127.328 91.888 127.072 88.432H143.296C143.488 90.288 144.352 91.792 145.888 92.944C147.424 94.096 149.312 94.672 151.552 94.672C153.6 94.672 155.168 94.288 156.256 93.52C157.408 92.688 157.984 91.632 157.984 90.352C157.984 88.816 157.184 87.696 155.584 86.992C153.984 86.224 151.392 85.392 147.808 84.496C143.968 83.6 140.768 82.672 138.208 81.712C135.648 80.688 133.44 79.12 131.584 77.008C129.728 74.832 128.8 71.92 128.8 68.272C128.8 65.2 129.632 62.416 131.296 59.92C133.024 57.36 135.52 55.344 138.784 53.872C142.112 52.4 146.048 51.664 150.592 51.664C157.312 51.664 162.592 53.328 166.432 56.656C170.336 59.984 172.576 64.4 173.152 69.904H157.984C157.728 68.048 156.896 66.576 155.488 65.488C154.144 64.4 152.352 63.856 150.112 63.856C148.192 63.856 146.72 64.24 145.696 65.008C144.672 65.712 144.16 66.704 144.16 67.984C144.16 69.52 144.96 70.672 146.56 71.44C148.224 72.208 150.784 72.976 154.24 73.744C158.208 74.768 161.44 75.792 163.936 76.816C166.432 77.776 168.608 79.376 170.464 81.616C172.384 83.792 173.376 86.736 173.44 90.448C173.44 93.584 172.544 96.4 170.752 98.896C169.024 101.328 166.496 103.248 163.168 104.656C159.904 106.064 156.096 106.768 151.744 106.768Z" fill="#151946"/>
<path d="M240.448 78.352C240.448 79.888 240.352 81.488 240.16 83.152H203.008C203.264 86.48 204.32 89.04 206.176 90.832C208.096 92.56 210.432 93.424 213.184 93.424C217.28 93.424 220.128 91.696 221.728 88.24H239.2C238.304 91.76 236.672 94.928 234.304 97.744C232 100.56 229.088 102.768 225.568 104.368C222.048 105.968 218.112 106.768 213.76 106.768C208.512 106.768 203.84 105.648 199.744 103.408C195.648 101.168 192.448 97.968 190.144 93.808C187.84 89.648 186.688 84.784 186.688 79.216C186.688 73.648 187.808 68.784 190.048 64.624C192.352 60.464 195.552 57.264 199.648 55.024C203.744 52.784 208.448 51.664 213.76 51.664C218.944 51.664 223.552 52.752 227.584 54.928C231.616 57.104 234.752 60.208 236.992 64.24C239.296 68.272 240.448 72.976 240.448 78.352ZM223.648 74.032C223.648 71.216 222.688 68.976 220.768 67.312C218.848 65.648 216.448 64.816 213.568 64.816C210.816 64.816 208.48 65.616 206.56 67.216C204.704 68.816 203.552 71.088 203.104 74.032H223.648Z" fill="#151946"/>
<path d="M327.688 79.12C327.688 73.616 328.712 68.784 330.76 64.624C332.872 60.464 335.72 57.264 339.304 55.024C342.888 52.784 346.888 51.664 351.304 51.664C355.08 51.664 358.376 52.432 361.192 53.968C364.072 55.504 366.28 57.52 367.816 60.016V52.432H384.232V106H367.816V98.416C366.216 100.912 363.976 102.928 361.096 104.464C358.28 106 354.984 106.768 351.208 106.768C346.856 106.768 342.888 105.648 339.304 103.408C335.72 101.104 332.872 97.872 330.76 93.712C328.712 89.488 327.688 84.624 327.688 79.12ZM367.816 79.216C367.816 75.12 366.664 71.888 364.36 69.52C362.12 67.152 359.368 65.968 356.104 65.968C352.84 65.968 350.056 67.152 347.752 69.52C345.512 71.824 344.392 75.024 344.392 79.12C344.392 83.216 345.512 86.48 347.752 88.912C350.056 91.28 352.84 92.464 356.104 92.464C359.368 92.464 362.12 91.28 364.36 88.912C366.664 86.544 367.816 83.312 367.816 79.216ZM412.524 61.36C414.444 58.416 416.844 56.112 419.724 54.448C422.604 52.72 425.804 51.856 429.324 51.856V69.232H424.812C420.716 69.232 417.644 70.128 415.596 71.92C413.548 73.648 412.524 76.72 412.524 81.136V106H396.108V52.432H412.524V61.36ZM467.027 92.08V106H458.675C452.723 106 448.083 104.56 444.755 101.68C441.427 98.736 439.763 93.968 439.763 87.376V66.064H433.235V52.432H439.763V39.376H456.179V52.432H466.931V66.064H456.179V87.568C456.179 89.168 456.563 90.32 457.331 91.024C458.099 91.728 459.379 92.08 461.171 92.08H467.027Z" fill="#36A18A"/>
<path d="M255.168 72.208C255.168 65.552 256.608 59.632 259.488 54.448C262.368 49.2 266.368 45.136 271.488 42.256C276.672 39.312 282.528 37.84 289.056 37.84C297.056 37.84 303.904 39.952 309.6 44.176C315.296 48.4 319.104 54.16 321.024 61.456H302.976C301.632 58.64 299.712 56.496 297.216 55.024C294.784 53.552 292 52.816 288.864 52.816C283.808 52.816 279.712 54.576 276.576 58.096C273.44 61.616 271.872 66.32 271.872 72.208C271.872 78.096 273.44 82.8 276.576 86.32C279.712 89.84 283.808 91.6 288.864 91.6C292 91.6 294.784 90.864 297.216 89.392C299.712 87.92 301.632 85.776 302.976 82.96H321.024C319.104 90.256 315.296 96.016 309.6 100.24C303.904 104.4 297.056 106.48 289.056 106.48C282.528 106.48 276.672 105.04 271.488 102.16C266.368 99.216 262.368 95.152 259.488 89.968C256.608 84.784 255.168 78.864 255.168 72.208Z" fill="#36A18A"/>
<path fill-rule="evenodd" clip-rule="evenodd" d="M381.381 106.009C382.153 105.96 382.931 106.098 383.69 106.559C383.985 106.755 384.283 106.981 384.554 107.384C384.703 107.609 384.849 107.933 384.899 108.414C385.012 109.406 385.005 110.476 384.995 111.507C384.965 113.126 384.876 114.727 384.753 116.297C384.478 119.772 384.034 123.139 383.408 126.202C383.011 128.116 382.534 129.913 381.961 131.395C381.815 131.788 381.653 132.19 381.451 132.239C381.341 132.288 381.222 132.141 381.176 131.837C381.129 131.523 381.149 131.159 381.189 130.845C381.669 127.243 382.15 123.63 382.487 119.89C382.57 118.957 382.643 118.015 382.693 117.063C382.749 115.944 382.799 114.766 382.69 113.666C382.637 113.117 382.494 112.685 382.325 112.429C382.04 111.988 381.719 111.821 381.401 111.693C380.616 111.418 379.828 111.507 379.039 111.644C378.168 111.811 377.297 112.096 376.429 112.41C376.303 112.449 376.157 112.42 376.065 112.135C375.982 111.89 375.992 111.487 376.038 111.193C376.121 110.702 376.277 110.368 376.429 110.083C377.098 108.748 377.847 107.825 378.622 107.178C379.516 106.422 380.447 106.068 381.381 106.009Z" fill="#F8981D"/>
<path fill-rule="evenodd" clip-rule="evenodd" d="M337.29 108.837C337.436 108.729 337.591 108.827 337.724 109.043C338.221 109.848 338.711 110.692 339.211 111.487C343.03 117.505 347.144 121.853 351.368 124.553C353.829 126.114 356.33 127.125 358.84 127.537C363.872 128.421 368.943 126.693 373.799 122.757C375.687 121.215 377.545 119.35 379.351 117.122C379.543 116.906 379.728 116.611 379.934 116.552C380.228 116.454 380.546 116.837 380.692 117.622C380.808 118.202 380.792 118.958 380.672 119.527C380.537 120.175 380.308 120.577 380.106 121.019C377.989 125.505 375.628 128.931 373.186 131.552C371.49 133.378 369.748 134.801 367.979 135.862C365.452 137.364 362.875 138.129 360.298 137.982C357.78 137.854 355.27 136.961 352.818 135.282C348.651 132.446 344.663 127.321 341.119 120.234C339.841 117.681 338.622 114.884 337.469 111.86C337.333 111.458 337.161 111.144 337.065 110.643C336.989 110.27 336.975 109.779 337.048 109.396C337.095 109.111 337.191 108.915 337.29 108.837Z" fill="#F8981D"/>
<path d="M120 43V107H104V43H120Z" fill="#151946"/>
<path d="M121.892 38.5807C119.004 41.3294 119.365 46.876 119.365 46.876H104.716C104.716 46.876 105.025 41.3294 102.188 38.5807C99.0419 35.9301 97.0302 32.1015 97.0302 27.8311C97.0302 19.9775 103.736 13.5965 111.989 13.5965C120.242 13.5965 126.947 19.9775 126.947 27.8311C126.947 32.1015 124.987 35.9301 121.892 38.5807Z" fill="#36A18A"/>
<path d="M119.777 51.2446C119.777 51.9809 119.158 52.5699 118.385 52.5699H105.644C104.871 52.5699 104.252 51.9809 104.252 51.2446C104.252 50.5083 104.871 49.9193 105.644 49.9193H118.333C119.107 49.9193 119.777 50.5083 119.777 51.2446Z" fill="#E5E5E5"/>
<path d="M117.869 56.7421C117.869 57.4784 117.25 58.0674 116.476 58.0674H107.553C106.779 58.0674 106.16 57.4784 106.16 56.7421C106.16 56.0059 106.779 55.4168 107.553 55.4168H116.476C117.25 55.4168 117.869 56.0059 117.869 56.7421Z" fill="#E5E5E5"/>
<path d="M122.666 39.0715C126.019 36.1755 127.927 32.1015 127.927 27.8311C127.927 19.4867 120.757 12.6639 111.989 12.6639C103.22 12.6639 96.0502 19.4867 96.0502 27.8311C96.0502 32.1997 98.0619 36.3719 101.466 39.2188C103.994 41.624 103.736 46.7288 103.736 46.7779C103.736 47.0233 103.839 47.2687 103.994 47.465C104.2 47.6614 104.458 47.7596 104.716 47.7596H119.313C119.571 47.7596 119.829 47.6614 120.035 47.465C120.242 47.2687 120.293 47.0233 120.293 46.7779C120.293 46.7288 120.035 41.624 122.563 39.2188C122.614 39.1697 122.666 39.1206 122.666 39.0715ZM121.222 37.8444C121.118 37.8935 121.067 37.9917 121.015 38.0898C118.746 40.3968 118.385 44.1764 118.333 45.9434H105.696C105.644 44.1273 105.232 40.2005 102.807 37.8935C99.764 35.3411 98.0103 31.7088 98.0103 27.8802C98.0103 20.5175 104.303 14.5782 111.989 14.5782C119.726 14.5782 125.967 20.5665 125.967 27.8802C125.967 31.6597 124.265 35.3411 121.222 37.8444Z" fill="#151946"/>
<path d="M111.989 16.5907C111.473 16.5907 111.009 16.9834 111.009 17.5233C111.009 18.0142 111.421 18.4559 111.989 18.4559C117.766 18.4559 122.46 22.9226 122.46 28.4202C122.46 28.911 122.872 29.3528 123.44 29.3528C123.955 29.3528 124.42 28.9601 124.42 28.4202C124.42 21.8919 118.849 16.5907 111.989 16.5907Z" fill="#151946"/>
<path d="M112.969 7.21547V0.932612C112.969 0.441764 112.556 0 111.989 0C111.473 0 111.009 0.392679 111.009 0.932612V7.26456C111.009 7.75541 111.421 8.19717 111.989 8.19717C112.556 8.14809 112.969 7.75541 112.969 7.21547Z" fill="#151946"/>
<path d="M128.237 4.66308C127.772 4.36857 127.205 4.51582 126.895 4.9085L123.233 10.1606C122.924 10.6023 123.078 11.1423 123.491 11.4368C123.646 11.535 123.852 11.584 124.007 11.584C124.316 11.584 124.626 11.4368 124.832 11.1914L128.494 5.93929C128.804 5.54661 128.649 4.95759 128.237 4.66308Z" fill="#151946"/>
<path d="M100.331 11.3877C100.486 11.3877 100.692 11.3386 100.847 11.2404C101.311 10.9459 101.415 10.406 101.157 9.96421L97.5976 4.66305C97.2882 4.22128 96.7208 4.12311 96.2565 4.36854C95.7923 4.66305 95.6892 5.20298 95.9471 5.64474L99.5061 10.9459C99.7125 11.2404 100.022 11.3877 100.331 11.3877Z" fill="#151946"/>
<path d="M86.6625 15.8053L92.4911 18.7995C92.6459 18.8977 92.8006 18.8977 92.9554 18.8977C93.3164 18.8977 93.6259 18.7013 93.8322 18.4068C94.0901 17.965 93.9354 17.376 93.4196 17.1306L87.591 14.1364C87.1268 13.891 86.5078 14.0383 86.2499 14.5291C86.0436 15.02 86.1983 15.5599 86.6625 15.8053Z" fill="#151946"/>
<path d="M131.022 18.9468C131.177 18.9468 131.331 18.8977 131.486 18.8486L137.315 15.8544C137.779 15.609 137.985 15.0691 137.727 14.5782C137.47 14.1364 136.902 13.9401 136.386 14.1855L130.558 17.1797C130.093 17.4251 129.887 17.9651 130.145 18.4559C130.3 18.7504 130.661 18.9468 131.022 18.9468Z" fill="#151946"/>
</svg>
