<svg width="472" height="148" viewBox="0 0 472 148" fill="none" xmlns="http://www.w3.org/2000/svg">
<path d="M96.688 48.608L79.12 116H59.248L48.496 71.648L37.36 116H17.488L0.4 48.608H17.968L27.664 97.664L39.664 48.608H57.712L69.232 97.664L79.024 48.608H96.688Z" fill="#151946"/>
<path d="M155.744 116.768C151.072 116.768 146.912 115.968 143.264 114.368C139.616 112.768 136.736 110.592 134.624 107.84C132.512 105.024 131.328 101.888 131.072 98.432H147.296C147.488 100.288 148.352 101.792 149.888 102.944C151.424 104.096 153.312 104.672 155.552 104.672C157.6 104.672 159.168 104.288 160.256 103.52C161.408 102.688 161.984 101.632 161.984 100.352C161.984 98.816 161.184 97.696 159.584 96.992C157.984 96.224 155.392 95.392 151.808 94.496C147.968 93.6 144.768 92.672 142.208 91.712C139.648 90.688 137.44 89.12 135.584 87.008C133.728 84.832 132.8 81.92 132.8 78.272C132.8 75.2 133.632 72.416 135.296 69.92C137.024 67.36 139.52 65.344 142.784 63.872C146.112 62.4 150.048 61.664 154.592 61.664C161.312 61.664 166.592 63.328 170.432 66.656C174.336 69.984 176.576 74.4 177.152 79.904H161.984C161.728 78.048 160.896 76.576 159.488 75.488C158.144 74.4 156.352 73.856 154.112 73.856C152.192 73.856 150.72 74.24 149.696 75.008C148.672 75.712 148.16 76.704 148.16 77.984C148.16 79.52 148.96 80.672 150.56 81.44C152.224 82.208 154.784 82.976 158.24 83.744C162.208 84.768 165.44 85.792 167.936 86.816C170.432 87.776 172.608 89.376 174.464 91.616C176.384 93.792 177.376 96.736 177.44 100.448C177.44 103.584 176.544 106.4 174.752 108.896C173.024 111.328 170.496 113.248 167.168 114.656C163.904 116.064 160.096 116.768 155.744 116.768Z" fill="#151946"/>
<path d="M244.448 88.352C244.448 89.888 244.352 91.488 244.16 93.152H207.008C207.264 96.48 208.32 99.04 210.176 100.832C212.096 102.56 214.432 103.424 217.184 103.424C221.28 103.424 224.128 101.696 225.728 98.24H243.2C242.304 101.76 240.672 104.928 238.304 107.744C236 110.56 233.088 112.768 229.568 114.368C226.048 115.968 222.112 116.768 217.76 116.768C212.512 116.768 207.84 115.648 203.744 113.408C199.648 111.168 196.448 107.968 194.144 103.808C191.84 99.648 190.688 94.784 190.688 89.216C190.688 83.648 191.808 78.784 194.048 74.624C196.352 70.464 199.552 67.264 203.648 65.024C207.744 62.784 212.448 61.664 217.76 61.664C222.944 61.664 227.552 62.752 231.584 64.928C235.616 67.104 238.752 70.208 240.992 74.24C243.296 78.272 244.448 82.976 244.448 88.352ZM227.648 84.032C227.648 81.216 226.688 78.976 224.768 77.312C222.848 75.648 220.448 74.816 217.568 74.816C214.816 74.816 212.48 75.616 210.56 77.216C208.704 78.816 207.552 81.088 207.104 84.032H227.648Z" fill="#151946"/>
<path d="M331.688 89.12C331.688 83.616 332.712 78.784 334.76 74.624C336.872 70.464 339.72 67.264 343.304 65.024C346.888 62.784 350.888 61.664 355.304 61.664C359.08 61.664 362.376 62.432 365.192 63.968C368.072 65.504 370.28 67.52 371.816 70.016V62.432H388.232V116H371.816V108.416C370.216 110.912 367.976 112.928 365.096 114.464C362.28 116 358.984 116.768 355.208 116.768C350.856 116.768 346.888 115.648 343.304 113.408C339.72 111.104 336.872 107.872 334.76 103.712C332.712 99.488 331.688 94.624 331.688 89.12ZM371.816 89.216C371.816 85.12 370.664 81.888 368.36 79.52C366.12 77.152 363.368 75.968 360.104 75.968C356.84 75.968 354.056 77.152 351.752 79.52C349.512 81.824 348.392 85.024 348.392 89.12C348.392 93.216 349.512 96.48 351.752 98.912C354.056 101.28 356.84 102.464 360.104 102.464C363.368 102.464 366.12 101.28 368.36 98.912C370.664 96.544 371.816 93.312 371.816 89.216ZM416.524 71.36C418.444 68.416 420.844 66.112 423.724 64.448C426.604 62.72 429.804 61.856 433.324 61.856V79.232H428.812C424.716 79.232 421.644 80.128 419.596 81.92C417.548 83.648 416.524 86.72 416.524 91.136V116H400.108V62.432H416.524V71.36ZM471.027 102.08V116H462.675C456.723 116 452.083 114.56 448.755 111.68C445.427 108.736 443.763 103.968 443.763 97.376V76.064H437.235V62.432H443.763V49.376H460.179V62.432H470.931V76.064H460.179V97.568C460.179 99.168 460.563 100.32 461.331 101.024C462.099 101.728 463.379 102.08 465.171 102.08H471.027Z" fill="#8479F9"/>
<path d="M259.168 82.208C259.168 75.552 260.608 69.632 263.488 64.448C266.368 59.2 270.368 55.136 275.488 52.256C280.672 49.312 286.528 47.84 293.056 47.84C301.056 47.84 307.904 49.952 313.6 54.176C319.296 58.4 323.104 64.16 325.024 71.456H306.976C305.632 68.64 303.712 66.496 301.216 65.024C298.784 63.552 296 62.816 292.864 62.816C287.808 62.816 283.712 64.576 280.576 68.096C277.44 71.616 275.872 76.32 275.872 82.208C275.872 88.096 277.44 92.8 280.576 96.32C283.712 99.84 287.808 101.6 292.864 101.6C296 101.6 298.784 100.864 301.216 99.392C303.712 97.92 305.632 95.776 306.976 92.96H325.024C323.104 100.256 319.296 106.016 313.6 110.24C307.904 114.4 301.056 116.48 293.056 116.48C286.528 116.48 280.672 115.04 275.488 112.16C270.368 109.216 266.368 105.152 263.488 99.968C260.608 94.784 259.168 88.864 259.168 82.208Z" fill="#8479F9"/>
<path fill-rule="evenodd" clip-rule="evenodd" d="M393.278 116.009C394.379 115.96 395.488 116.098 396.57 116.559C396.99 116.755 397.415 116.981 397.803 117.384C398.015 117.609 398.223 117.933 398.294 118.414C398.454 119.406 398.445 120.476 398.431 121.507C398.388 123.126 398.261 124.727 398.086 126.297C397.694 129.772 397.061 133.139 396.168 136.202C395.602 138.116 394.922 139.913 394.105 141.395C393.897 141.788 393.665 142.19 393.377 142.239C393.221 142.288 393.051 142.141 392.985 141.837C392.919 141.523 392.948 141.159 393.004 140.845C393.689 137.243 394.374 133.63 394.856 129.89C394.974 128.957 395.078 128.015 395.148 127.063C395.229 125.944 395.3 124.766 395.144 123.666C395.068 123.117 394.865 122.685 394.624 122.429C394.218 121.988 393.76 121.821 393.306 121.693C392.187 121.418 391.063 121.507 389.939 121.644C388.697 121.811 387.455 122.096 386.218 122.41C386.038 122.449 385.83 122.42 385.698 122.135C385.58 121.89 385.594 121.487 385.66 121.193C385.778 120.702 386 120.368 386.218 120.083C387.172 118.748 388.239 117.825 389.344 117.178C390.619 116.422 391.946 116.068 393.278 116.009Z" fill="#F8981D"/>
<path fill-rule="evenodd" clip-rule="evenodd" d="M330.413 118.837C330.621 118.729 330.843 118.827 331.032 119.043C331.741 119.848 332.44 120.692 333.153 121.487C338.598 127.505 344.464 131.853 350.485 134.553C353.994 136.114 357.56 137.125 361.14 137.537C368.314 138.421 375.544 136.693 382.468 132.757C385.16 131.215 387.809 129.35 390.383 127.122C390.657 126.906 390.922 126.611 391.214 126.552C391.635 126.454 392.088 126.837 392.296 127.622C392.461 128.202 392.438 128.958 392.268 129.527C392.074 130.175 391.748 130.577 391.46 131.019C388.442 135.505 385.075 138.931 381.594 141.552C379.176 143.378 376.692 144.801 374.17 145.862C370.566 147.364 366.892 148.129 363.218 147.982C359.628 147.854 356.049 146.961 352.554 145.282C346.613 142.445 340.926 137.321 335.873 130.234C334.05 127.681 332.312 124.884 330.668 121.86C330.475 121.458 330.229 121.144 330.092 120.643C329.984 120.27 329.965 119.779 330.069 119.396C330.135 119.111 330.272 118.915 330.413 118.837Z" fill="#F8981D"/>
<path d="M120 65V116H104V65H120Z" fill="#151946"/>
<path d="M122.573 34.6572C119.778 37.1265 120.127 42.109 120.127 42.109H105.951C105.951 42.109 106.25 37.1265 103.505 34.6572C100.46 32.2762 98.5132 28.8369 98.5132 25.0008C98.5132 17.9459 105.002 12.2138 112.989 12.2138C120.976 12.2138 127.465 17.9459 127.465 25.0008C127.465 28.8369 125.568 32.2762 122.573 34.6572Z" fill="#05FF00"/>
<path d="M120.526 46.0333C120.526 46.6947 119.927 47.2238 119.179 47.2238H106.849C106.1 47.2238 105.501 46.6947 105.501 46.0333C105.501 45.3719 106.1 44.8428 106.849 44.8428H119.129C119.878 44.8428 120.526 45.3719 120.526 46.0333Z" fill="#E5E5E5"/>
<path d="M118.68 50.9717C118.68 51.6331 118.081 52.1623 117.332 52.1623H108.696C107.947 52.1623 107.348 51.6331 107.348 50.9717C107.348 50.3103 107.947 49.7812 108.696 49.7812H117.332C118.081 49.7812 118.68 50.3103 118.68 50.9717Z" fill="#E5E5E5"/>
<path d="M123.322 35.0982C126.566 32.4967 128.413 28.8369 128.413 25.0008C128.413 17.505 121.475 11.376 112.989 11.376C104.503 11.376 97.5647 17.505 97.5647 25.0008C97.5647 28.9251 99.5115 32.673 102.806 35.2305C105.252 37.391 105.002 41.9767 105.002 42.0208C105.002 42.2413 105.102 42.4617 105.252 42.6381C105.452 42.8145 105.701 42.9027 105.951 42.9027H120.077C120.327 42.9027 120.576 42.8145 120.776 42.6381C120.976 42.4617 121.026 42.2413 121.026 42.0208C121.026 41.9767 120.776 37.391 123.222 35.2305C123.272 35.1864 123.322 35.1423 123.322 35.0982ZM121.924 33.9958C121.824 34.0399 121.774 34.1281 121.724 34.2163C119.528 36.2887 119.179 39.6839 119.129 41.2712H106.899C106.849 39.6398 106.45 36.1123 104.104 34.0399C101.159 31.7471 99.4615 28.4842 99.4615 25.0449C99.4615 18.4309 105.551 13.0957 112.989 13.0957C120.477 13.0957 126.516 18.475 126.516 25.0449C126.516 28.4401 124.869 31.7471 121.924 33.9958Z" fill="#8479F9"/>
<path d="M112.989 14.9035C112.49 14.9035 112.041 15.2562 112.041 15.7413C112.041 16.1822 112.44 16.579 112.989 16.579C118.58 16.579 123.122 20.5915 123.122 25.53C123.122 25.9709 123.521 26.3677 124.071 26.3677C124.57 26.3677 125.019 26.015 125.019 25.53C125.019 19.6656 119.628 14.9035 112.989 14.9035Z" fill="#8479F9"/>
<path d="M121.475 46.0333C121.475 44.8869 120.427 44.005 119.179 44.005H106.849C105.551 44.005 104.553 44.931 104.553 46.0333C104.553 47.1797 105.601 48.0616 106.849 48.0616H119.129C120.427 48.0616 121.475 47.1797 121.475 46.0333ZM119.129 46.386H106.849C106.6 46.386 106.45 46.2097 106.45 46.0333C106.45 45.8128 106.65 45.6805 106.849 45.6805H119.129C119.378 45.6805 119.528 45.8569 119.528 46.0333C119.578 46.2538 119.378 46.386 119.129 46.386Z" fill="#8479F9"/>
<path d="M117.332 48.9435H108.696C107.398 48.9435 106.4 49.8694 106.4 50.9717C106.4 52.1182 107.448 53 108.696 53H117.332C118.63 53 119.628 52.0741 119.628 50.9717C119.628 49.8694 118.58 48.9435 117.332 48.9435ZM117.332 51.3245H108.696C108.447 51.3245 108.297 51.1481 108.297 50.9717C108.297 50.7513 108.497 50.619 108.696 50.619H117.332C117.581 50.619 117.731 50.7954 117.731 50.9717C117.731 51.1922 117.581 51.3245 117.332 51.3245Z" fill="#8479F9"/>
<path d="M113.937 6.4817V0.83777C113.937 0.396839 113.538 0 112.989 0C112.49 0 112.041 0.352745 112.041 0.83777V6.52579C112.041 6.96672 112.44 7.36356 112.989 7.36356C113.538 7.31947 113.937 6.96672 113.937 6.4817Z" fill="#8479F9"/>
<path d="M128.713 4.18886C128.264 3.9243 127.714 4.05658 127.415 4.40933L123.871 9.1273C123.571 9.52414 123.721 10.0092 124.12 10.2737C124.27 10.3619 124.47 10.406 124.62 10.406C124.919 10.406 125.219 10.2737 125.418 10.0533L128.962 5.33529C129.262 4.98254 129.112 4.45342 128.713 4.18886Z" fill="#8479F9"/>
<path d="M101.708 10.2296C101.858 10.2296 102.057 10.1855 102.207 10.0973C102.656 9.83278 102.756 9.34775 102.506 8.95091L99.0622 4.18885C98.7627 3.79201 98.2136 3.70382 97.7644 3.92429C97.3151 4.18885 97.2153 4.67387 97.4649 5.07071L100.909 9.83278C101.109 10.0973 101.408 10.2296 101.708 10.2296Z" fill="#8479F9"/>
<path d="M88.4799 14.198L94.1205 16.8877C94.2702 16.9759 94.42 16.9759 94.5697 16.9759C94.9191 16.9759 95.2186 16.7995 95.4183 16.535C95.6679 16.1381 95.5181 15.609 95.019 15.3885L89.3784 12.6988C88.9291 12.4784 88.3301 12.6107 88.0805 13.0516C87.8808 13.4925 88.0306 13.9775 88.4799 14.198Z" fill="#8479F9"/>
<path d="M131.408 17.02C131.558 17.02 131.708 16.9759 131.858 16.9318L137.498 14.2421C137.947 14.0216 138.147 13.5366 137.897 13.0957C137.648 12.6988 137.099 12.5225 136.6 12.7429L130.959 15.4326C130.51 15.6531 130.31 16.1381 130.56 16.579C130.709 16.8436 131.059 17.02 131.408 17.02Z" fill="#8479F9"/>
</svg>
